#!OML:ASF H:\Terrain\Patient Classification 1\Walking\liu\liu.ASF
:FULLY-SPECIFIED
:DEGREES
291
root 10.066200 16.861900 3.817000 5.939190 1.875430 3.457770
lowerback -6.726082 -4.082804 -5.240983
upperback -0.082435 -5.156349 2.287164
thorax 4.299064 -2.686233 4.808353
lowerneck -23.932480 -4.412892 -12.910150
upperneck 24.928089 -5.288415 12.768471
head 12.742841 -1.928190 6.087807
rclavicle -0.000000 0.000000
rhumerus -51.804722 8.330234 -91.251495
rradius 44.167419
rwrist -25.038641
rhand -32.403030 -25.363140
rfingers 7.837522
rthumb -3.072740 -58.320793
lclavicle -0.000000 0.000000
lhumerus -12.053250 -24.151051 94.784912
lradius 29.787010
lwrist 8.056356
lhand -17.585260 -26.479860
lfingers 7.837522
lthumb 11.234410 6.225428
rfemur -41.218544 0.418224 16.564020
rtibia 45.990120
rfoot -24.000790 -11.311630
rtoes -23.099340
lfemur -3.776905 4.696505 -32.487289
ltibia 20.080610
lfoot -20.528860 4.790698
ltoes -3.622696
292
root 10.065300 16.869400 3.963890 5.835410 2.206800 3.428100
lowerback -6.655077 -4.157450 -5.252742
upperback -0.174364 -5.258385 2.278034
thorax 4.175226 -2.732279 4.801665
lowerneck -23.680471 -4.459389 -12.673870
upperneck 25.378981 -5.359222 12.255541
head 12.852950 -2.011779 5.852132
rclavicle 0.000000 -0.000000
rhumerus -52.312809 8.111510 -91.332123
rradius 43.880432
rwrist -24.582800
rhand -32.019901 -25.231911
rfingers 7.837522
rthumb -2.702700 -58.194073
lclavicle 0.000000 -0.000000
lhumerus -12.083391 -25.191650 95.004692
lradius 30.415770
lwrist 9.255995
lhand -17.541151 -25.892130
lfingers 7.837522
lthumb 11.276979 6.811013
rfemur -41.262539 0.875696 16.249531
rtibia 43.930260
rfoot -23.527130 -10.205591
rtoes -20.032761
lfemur -2.477508 4.903613 -32.279720
ltibia 19.035721
lfoot -20.512470 4.242645
ltoes -3.349258
293
root 10.071500 16.881201 4.102030 5.790050 2.805690 3.464000
lowerback -6.494257 -4.316642 -5.206278
upperback -0.277184 -5.480915 2.260225
thorax 3.997741 -2.835833 4.746698
lowerneck -23.060181 -4.388219 -13.289430
upperneck 24.929741 -5.345923 13.203191
head 12.604899 -1.960112 6.309138
rclavicle 0.000000 0.000000
rhumerus -52.865452 8.339474 -91.641556
rradius 43.911121
rwrist -24.899271
rhand -32.761742 -27.894241
rfingers 7.837522
rthumb -3.419086 -60.847050
lclavicle 0.000000 0.000000
lhumerus -11.986260 -26.668180 95.196754
lradius 30.945530
lwrist 10.819105
lhand -17.333801 -25.134560
lfingers 7.837522
lthumb 11.476961 7.558661
rfemur -41.386509 1.074535 15.778290
rtibia 41.930019
rfoot -23.195372 -10.250933
rtoes -21.701351
lfemur -1.096061 5.034238 -32.165100
ltibia 17.720669
lfoot -20.200951 3.645312
ltoes -3.870229
294
root 10.069100 16.889500 4.232390 6.099280 2.987840 3.279060
lowerback -6.937040 -4.292761 -5.023997
upperback -0.256954 -5.445814 2.347477
thorax 4.255438 -2.821588 4.709793
lowerneck -23.088121 -4.471654 -13.441670
upperneck 24.705341 -5.450467 13.420660
head 12.552540 -1.992386 6.393717
rclavicle -0.000000 0.000000
rhumerus -52.912754 8.547562 -91.803246
rradius 43.866791
rwrist -25.309462
rhand -34.335072 -33.047852
rfingers 7.837522
rthumb -4.938494 -65.973488
lclavicle -0.000000 0.000000
lhumerus -11.516010 -27.868719 95.310822
lradius 31.553612
lwrist 12.004850
lhand -17.128759 -24.604361
lfingers 7.837522
lthumb 11.674741 8.078851
rfemur -42.146614 2.160290 15.437290
rtibia 39.996109
rfoot -23.631300 -10.705937
rtoes -23.281832
lfemur -0.043662 5.091383 -31.829050
ltibia 15.949341
lfoot -19.609812 3.506932
ltoes -3.660437
295
root 10.064100 16.885500 4.374500 6.327410 3.194150 3.456230
lowerback -7.479824 -4.346969 -5.340577
upperback -0.155978 -5.469200 2.321704
thorax 4.693557 -2.850144 4.818187
lowerneck -23.991220 -4.688453 -12.830291
upperneck 25.210461 -5.707735 12.696530
head 12.917631 -2.118512 5.987960
rclavicle 0.000000 0.000000
rhumerus -52.870182 8.605411 -91.866501
rradius 43.536789
rwrist -25.152382
rhand -34.397552 -33.007809
rfingers 7.837522
rthumb -4.998796 -65.932243
lclavicle 0.000000 0.000000
lhumerus -11.077880 -28.813951 95.306755
lradius 32.259258
lwrist 12.912901
lhand -17.076071 -24.447281
lfingers 7.837522
lthumb 11.725671 8.233247
rfemur -42.784500 3.079846 14.604150
rtibia 38.216862
rfoot -23.973951 -10.557162
rtoes -23.075470
lfemur 1.319923 4.831233 -31.918591
ltibia 13.888930
lfoot -19.091162 3.396184
ltoes -1.589038
296
root 10.066900 16.875500 4.528800 6.473970 3.565500 3.854030
lowerback -7.883392 -4.496195 -5.782678
upperback -0.118701 -5.607503 2.199307
thorax 5.003669 -2.933810 4.891898
lowerneck -23.393589 -4.719759 -13.169860
upperneck 24.839211 -5.743100 12.951621
head 12.683551 -2.148817 6.121995
rclavicle 0.000000 0.000000
rhumerus -52.985683 8.548331 -91.942513
rradius 43.124950
rwrist -24.808960
rhand -33.192169 -26.670931
rfingers 7.837522
rthumb -3.834765 -59.617363
lclavicle 0.000000 0.000000
lhumerus -10.812671 -29.749281 95.391121
lradius 32.969093
lwrist 14.287790
lhand -16.764111 -23.943590
lfingers 7.837522
lthumb 12.026520 8.721317
rfemur -43.289841 3.753508 13.435290
rtibia 36.627911
rfoot -24.209570 -10.310960
rtoes -22.758560
lfemur 3.054887 4.381762 -32.269051
ltibia 11.434060
lfoot -18.461519 3.224540
ltoes 0.915765
297
root 10.069900 16.863800 4.673010 6.525390 3.858640 4.296760
lowerback -7.911178 -4.610067 -6.285026
upperback -0.185045 -5.713312 2.120261
thorax 5.000908 -2.994541 5.076654
lowerneck -23.460690 -4.885738 -13.361150
upperneck 25.157110 -5.899939 12.831940
head 12.842170 -2.251216 6.096101
rclavicle 0.000000 0.000000
rhumerus -53.078964 8.385938 -91.779488
rradius 42.540852
rwrist -24.295921
rhand -32.990871 -23.528891
rfingers 7.837522
rthumb -3.640428 -56.478291
lclavicle 0.000000 0.000000
lhumerus -10.709490 -30.502451 95.731789
lradius 33.556271
lwrist 15.403960
lhand -16.417280 -23.199001
lfingers 7.837522
lthumb 12.361031 9.447944
rfemur -43.738644 4.547763 12.145320
rtibia 35.206600
rfoot -24.614262 -10.106371
rtoes -23.842611
lfemur 5.396831 4.327257 -32.690681
ltibia 8.114634
lfoot -17.420589 2.965809
ltoes 0.594565
298
root 10.062800 16.853500 4.815760 6.442740 4.252280 4.777500
lowerback -7.749665 -4.745972 -6.984142
upperback -0.206615 -5.844443 2.054602
thorax 4.963332 -3.072751 5.392959
lowerneck -23.317909 -4.922489 -13.432210
upperneck 25.216621 -5.924149 12.740970
head 12.839641 -2.284018 6.070625
rclavicle -0.000000 -0.000000
rhumerus -53.031223 7.915655 -91.413300
rradius 41.735210
rwrist -23.429670
rhand -33.854153 -26.638811
rfingers 7.837522
rthumb -4.474074 -59.573803
lclavicle -0.000000 -0.000000
lhumerus -10.710701 -31.682201 96.014053
lradius 34.248390
lwrist 16.521561
lhand -16.223021 -22.894411
lfingers 7.837522
lthumb 12.548361 9.742271
rfemur -43.942913 5.718791 10.649737
rtibia 33.822472
rfoot -25.052391 -10.485200
rtoes -24.126081
lfemur 8.693729 4.183410 -33.097569
ltibia 3.330503
lfoot -15.608561 3.025330
ltoes -1.676323
299
root 10.049100 16.858299 4.961490 6.511290 4.907910 4.644670
lowerback -7.809593 -4.918837 -7.003623
upperback -0.270475 -6.073771 2.127004
thorax 4.970680 -3.186326 5.447090
lowerneck -22.693552 -4.829033 -13.499310
upperneck 24.802252 -5.868995 12.959321
head 12.561780 -2.253944 6.156920
rclavicle -0.000000 -0.000000
rhumerus -53.029461 7.440345 -91.356544
rradius 41.058491
rwrist -22.889900
rhand -34.839420 -29.603201
rfingers 7.837522
rthumb -5.425486 -62.518059
lclavicle -0.000000 -0.000000
lhumerus -10.851753 -32.961170 96.212051
lradius 35.080761
lwrist 17.712751
lhand -15.998071 -22.889351
lfingers 7.837522
lthumb 12.765281 9.735220
rfemur -44.190193 7.457780 9.590075
rtibia 32.456051
rfoot -25.683020 -11.523161
rtoes -19.861712
lfemur 10.957935 3.780887 -32.699921
ltibia -0.000000
lfoot -14.289221 3.051620
ltoes -3.537182
300
root 10.044600 16.869801 5.106130 6.709070 5.382740 4.207850
lowerback -8.021838 -5.005264 -6.497469
upperback -0.424823 -6.223602 2.223573
thorax 4.908167 -3.244890 5.236429
lowerneck -22.166319 -4.810245 -13.522080
upperneck 24.558929 -5.919892 13.112660
head 12.380939 -2.274822 6.200029
rclavicle -0.000000 -0.000000
rhumerus -53.192814 7.104768 -91.448288
rradius 40.569653
rwrist -22.428009
rhand -34.840851 -29.942331
rfingers 7.837522
rthumb -5.426795 -62.857189
lclavicle -0.000000 -0.000000
lhumerus -11.138710 -34.177769 96.402794
lradius 36.001019
lwrist 18.913401
lhand -15.996201 -22.563641
lfingers 7.837522
lthumb 12.767150 10.060821
rfemur -44.675838 9.421577 8.741096
rtibia 31.238020
rfoot -26.505821 -12.432860
rtoes -16.055380
lfemur 11.289300 3.579829 -31.983160
ltibia -0.000000
lfoot -14.555971 3.033382
ltoes -4.607977
301
root 10.044400 16.870701 5.255000 6.825410 5.727970 4.086040
lowerback -8.186673 -5.057338 -6.317575
upperback -0.523326 -6.300416 2.247894
thorax 4.891832 -3.276196 5.143017
lowerneck -22.098230 -4.907518 -13.387440
upperneck 24.764959 -6.047272 12.814340
head 12.449361 -2.359148 6.048592
rclavicle -0.000000 0.000000
rhumerus -53.572422 7.105571 -91.458733
rradius 40.372311
rwrist -22.180620
rhand -34.226719 -30.016359
rfingers 7.837522
rthumb -4.833774 -62.944309
lclavicle -0.000000 0.000000
lhumerus -11.430210 -35.226513 96.750832
lradius 36.916328
lwrist 19.747530
lhand -15.758711 -22.275110
lfingers 7.837522
lthumb 12.996170 10.336349
rfemur -45.200649 11.651530 7.289865
rtibia 30.198631
rfoot -27.971571 -13.776950
rtoes -17.249100
lfemur 11.769890 3.504666 -31.669439
ltibia -0.000000
lfoot -14.804790 2.953511
ltoes -3.559776
302
root 10.044900 16.856600 5.409610 6.942010 6.048870 4.355130
lowerback -8.312140 -5.133084 -6.616214
upperback -0.591987 -6.368109 2.217248
thorax 4.925657 -3.314234 5.261454
lowerneck -22.131231 -5.023425 -13.365770
upperneck 24.933701 -6.165995 12.581690
head 12.528010 -2.438513 5.941958
rclavicle -0.000000 0.000000
rhumerus -54.209099 7.857674 -91.819977
rradius 40.516518
rwrist -22.798820
rhand -33.334068 -27.615721
rfingers 7.837522
rthumb -3.971792 -60.559841
lclavicle -0.000000 0.000000
lhumerus -11.592130 -35.649902 97.280045
lradius 37.480740
lwrist 19.477369
lhand -14.962090 -22.423389
lfingers 7.837522
lthumb 13.764191 10.142540
rfemur -45.872749 13.685431 5.313000
rtibia 29.428522
rfoot -30.029121 -15.239070
rtoes -21.582439
lfemur 12.265770 3.417007 -31.826960
ltibia -0.000000
lfoot -14.896310 2.625678
ltoes -1.220879
303
root 10.046300 16.838400 5.567430 7.139020 6.358750 4.587270
lowerback -8.595499 -5.177656 -6.810266
upperback -0.631954 -6.390241 2.143669
thorax 5.057096 -3.329810 5.269473
lowerneck -21.418100 -5.013602 -13.817870
upperneck 24.393930 -6.189997 13.110681
head 12.223420 -2.444552 6.198390
rclavicle -0.000000 0.000000
rhumerus -54.486412 8.075650 -92.109047
rradius 40.217869
rwrist -23.008591
rhand -29.905809 -20.194349
rfingers 7.837522
rthumb -0.660865 -53.171139
lclavicle -0.000000 0.000000
lhumerus -11.667590 -36.102882 97.614105
lradius 38.041740
lwrist 18.997551
lhand -14.098040 -22.435930
lfingers 7.837522
lthumb 14.597220 10.077332
rfemur -46.707100 15.613291 3.378749
rtibia 28.992151
rfoot -32.024410 -16.588991
rtoes -24.014761
lfemur 12.637131 3.327951 -31.927500
ltibia -0.000000
lfoot -15.043160 2.279002
ltoes -0.230382
